<svg width="9" height="17" viewBox="0 0 9 17" fill="none" xmlns="http://www.w3.org/2000/svg">
<path d="M1.5287 16.8723C1.26297 16.8728 1.00544 16.7802 0.800832 16.6107C0.685671 16.5152 0.590478 16.3979 0.520702 16.2656C0.450927 16.1333 0.407941 15.9885 0.394208 15.8396C0.380474 15.6906 0.396262 15.5404 0.440667 15.3975C0.485072 15.2547 0.557221 15.122 0.652983 15.0071L5.74807 8.91119L0.834951 2.80391C0.740481 2.68758 0.669933 2.55373 0.627362 2.41004C0.584791 2.26636 0.571036 2.11567 0.586889 1.96666C0.602742 1.81764 0.647889 1.67322 0.719737 1.54171C0.791584 1.4102 0.888715 1.29418 1.00555 1.20033C1.12322 1.09679 1.26102 1.0187 1.4103 0.970942C1.55959 0.923188 1.71713 0.906807 1.87304 0.922826C2.02896 0.938844 2.17988 0.986917 2.31634 1.06403C2.45279 1.14114 2.57184 1.24562 2.666 1.37092L8.15913 8.19469C8.32641 8.39819 8.41785 8.65345 8.41785 8.91687C8.41785 9.1803 8.32641 9.43556 8.15913 9.63906L2.47266 16.4628C2.35857 16.6005 2.21364 16.7093 2.04963 16.7804C1.88562 16.8515 1.70715 16.883 1.5287 16.8723Z" fill="#D0CFCF"/>
</svg>
